<svg width="280" height="133" viewBox="0 0 280 133" fill="none" xmlns="http://www.w3.org/2000/svg">
<path d="M274 101.495C275.795 37.1766 261.259 14.8344 194 11.4945C139.264 13.7606 122.197 34.0777 114.103 100.644C114.038 101.178 113.754 101.684 113.327 102.01C96.1554 115.108 84.648 119.913 60 121.494C34.0243 118.676 23.1715 113.303 5.99999 101.495L5.99998 11.4945L30 32.4945C54.323 22.3242 67.4818 22.0343 90.0002 32.4945L114 11.4945" stroke="black" stroke-width="10" stroke-linecap="round"/>
<path d="M197.708 88.4941C191.208 110.494 231.708 113.994 228.708 88.4941" stroke="black" stroke-width="10" stroke-linecap="round"/>
<path d="M242.708 97.4941C236.208 119.494 275.5 123.494 274 97.4941" stroke="black" stroke-width="10" stroke-linecap="round"/>
<path d="M114.5 97.4941C108 119.494 149.708 122.994 146.708 97.4941" stroke="black" stroke-width="10" stroke-linecap="round"/>
<path d="M165.708 88.4941C159.208 110.494 199.708 113.994 196.708 88.4941" stroke="black" stroke-width="10" stroke-linecap="round"/>
<path d="M193.262 93.2855C195.251 95.5249 198.749 95.5249 200.738 93.2855L206.93 86.3146C209.794 83.0897 207.505 77.9941 203.192 77.9941H190.808C186.495 77.9941 184.206 83.0897 187.07 86.3146L193.262 93.2855Z" fill="black"/>
<path d="M59.036 102.793C60.1634 103.77 61.8366 103.77 62.964 102.793L67.9077 98.5119C70.0074 96.6935 68.7214 93.2441 65.9437 93.2441H56.0563C53.2786 93.2441 51.9926 96.6935 54.0923 98.5119L59.036 102.793Z" fill="black"/>
</svg>
